<svg xmlns="http://www.w3.org/2000/svg" width="32" height="32" viewBox="0 0 32 32">
    <g fill="none" fill-rule="evenodd">
        <path fill="#EB5D00" d="M0 32L16 14 32 32zM29.237 6.317c1.439 0 2.097 1.116 2.097 2.338 0 .096-.008.209-.015.321H28.32c.12.555.507.844 1.053.844.41 0 .707-.128 1.044-.442l.7.62c-.403.497-.981.802-1.76.802-1.294 0-2.25-.908-2.25-2.226V8.56c0-1.23.875-2.242 2.129-2.242zm-20.123.031c.667 0 1.15.177 1.455.483.321.321.466.795.466 1.374v2.5H9.853v-.467c-.297.33-.707.546-1.301.546-.812 0-1.48-.466-1.48-1.318v-.015c0-.941.716-1.375 1.737-1.375.434 0 .747.073 1.053.177v-.072c0-.506-.314-.788-.924-.788-.467 0-.796.088-1.19.233l-.305-.932c.474-.21.94-.346 1.671-.346zm4.131-.016c.547 0 1.141.185 1.608.499l-.467.844c-.425-.25-.851-.402-1.165-.402-.297 0-.45.128-.45.297v.016c0 .24.41.354.876.514.603.201 1.303.49 1.303 1.278v.016c0 .956-.716 1.39-1.649 1.39-.602 0-1.277-.2-1.848-.65l.523-.804c.466.338.956.514 1.358.514.353 0 .514-.129.514-.321v-.016c0-.265-.418-.354-.892-.498-.603-.178-1.286-.458-1.286-1.295V7.7c0-.876.708-1.367 1.575-1.367zm4.074.016c.667 0 1.15.177 1.455.483.321.321.466.795.466 1.374v2.5h-1.182v-.467c-.297.33-.707.546-1.301.546-.812 0-1.479-.466-1.479-1.318v-.015c0-.941.715-1.375 1.736-1.375.434 0 .747.073 1.053.177v-.072c0-.506-.314-.788-.925-.788-.466 0-.795.088-1.19.233l-.304-.932c.474-.21.94-.346 1.671-.346zm8.487-1.052v1.1h1.012v1.045h-1.012v1.84c0 .282.12.419.394.419.225 0 .426-.057.602-.153v.98c-.257.153-.554.25-.964.25-.747 0-1.254-.297-1.254-1.295V7.441h-.514V6.397h.514V5.296h1.222zm-24.013 1.1l.966 2.886.972-2.885H5l-1.697 4.34H2.195L.5 6.396h1.293zm4.79 0v4.308H5.362V6.397h1.22zm15.68-.08c.923 0 1.461.61 1.461 1.6v2.788h-1.22V8.301c0-.578-.274-.876-.74-.876-.467 0-.764.298-.764.876v2.403h-1.221V6.397h1.22v.61c.283-.361.644-.69 1.263-.69zM9.097 8.807c-.522 0-.844.21-.844.595v.016c0 .33.273.523.667.523.57 0 .957-.314.957-.756V8.97c-.209-.097-.483-.162-.78-.162zm8.205 0c-.522 0-.844.21-.844.595v.016c0 .33.274.523.668.523.57 0 .956-.314.956-.756V8.97c-.21-.097-.482-.162-.78-.162zm11.934-1.51c-.506 0-.836.361-.932.916h1.84c-.072-.547-.393-.916-.908-.916zM6.615 4.837v1.085H5.329V4.837h1.286zm23.04-.337l1.053.458-1.029.964h-.932l.908-1.422z"/>
    </g>
</svg>
